<svg width="20" height="20" viewBox="0 0 20 20" fill="none" xmlns="http://www.w3.org/2000/svg">
<g id="Frame">
<g id="Group">
<path id="Vector" d="M6.20499 3.74977C6.2048 4.1476 6.04657 4.52905 5.76512 4.81021C5.48368 5.09138 5.10207 5.24922 4.70424 5.24902C4.30642 5.24882 3.92497 5.0906 3.6438 4.80915C3.36264 4.52771 3.2048 4.1461 3.20499 3.74827C3.20519 3.35045 3.36342 2.969 3.64486 2.68783C3.92631 2.40667 4.30792 2.24882 4.70574 2.24902C5.10357 2.24922 5.48502 2.40745 5.76619 2.68889C6.04735 2.97034 6.20519 3.35195 6.20499 3.74977ZM6.24999 6.35977H3.24999V15.7498H6.24999V6.35977ZM10.99 6.35977H8.00499V15.7498H10.96V10.8223C10.96 8.07727 14.5375 7.82227 14.5375 10.8223V15.7498H17.5V9.80227C17.5 5.17477 12.205 5.34727 10.96 7.61977L10.99 6.35977Z" fill="#75757F"/>
</g>
</g>
</svg>
